<svg width="127" height="28" viewBox="0 0 127 28" fill="none" xmlns="http://www.w3.org/2000/svg">
<path fill-rule="evenodd" clip-rule="evenodd" d="M3.62589 11.6667H5.625C6.52011 11.6667 7.37855 12.0354 8.01149 12.6918C8.64442 13.3482 9 14.2384 9 15.1667V16.3333C9 16.6427 9.11853 16.9395 9.32951 17.1583C9.54049 17.3771 9.82663 17.5 10.125 17.5C11.0201 17.5 11.8786 17.8687 12.5115 18.5251C13.1444 19.1815 13.5 20.0717 13.5 21V24.5C14.2733 24.5 15.0264 24.4101 15.75 24.2398V19.8333C15.75 18.9051 16.1056 18.0148 16.7385 17.3585C17.3715 16.7021 18.2299 16.3333 19.125 16.3333H23.3741C23.5383 15.5829 23.625 14.8019 23.625 14C23.625 12.7728 23.422 11.5947 23.0489 10.5H20.25C19.6338 10.5 19.125 11.0277 19.125 11.6667C19.125 12.5949 18.7694 13.4852 18.1365 14.1415C17.5036 14.7979 16.6451 15.1667 15.75 15.1667C13.8912 15.1667 12.375 13.5943 12.375 11.6667C12.375 11.3572 12.2565 11.0605 12.0455 10.8417C11.8345 10.6229 11.5484 10.5 11.25 10.5C10.0565 10.5 8.91193 10.0083 8.06802 9.13315C7.2994 8.33607 6.83754 7.28032 6.76125 6.16319C5.21821 7.59113 4.09957 9.50187 3.62589 11.6667ZM9 4.59143V5.83332C9 6.45216 9.23705 7.04565 9.65901 7.48324C10.081 7.92082 10.6533 8.16666 11.25 8.16666C12.1451 8.16666 13.0036 8.53541 13.6365 9.19178C14.2694 9.84816 14.625 10.7384 14.625 11.6667C14.625 12.3057 15.1338 12.8333 15.75 12.8333C16.0484 12.8333 16.3345 12.7104 16.5455 12.4916C16.7565 12.2728 16.875 11.9761 16.875 11.6667C16.875 9.73899 18.3912 8.16666 20.25 8.16666H21.92C20.1037 5.35269 17.0105 3.49999 13.5 3.49999C11.8836 3.49999 10.3556 3.89281 9 4.59143ZM24.8164 8.79859C22.8919 4.30248 18.5491 1.16666 13.5 1.16666C6.66548 1.16666 1.125 6.91234 1.125 14C1.125 21.0876 6.66548 26.8333 13.5 26.8333C20.3345 26.8333 25.875 21.0876 25.875 14C25.875 12.2019 25.5184 10.4902 24.8746 8.93682C24.858 8.88922 24.8385 8.84307 24.8164 8.79859ZM22.5725 18.6667H19.125C18.8266 18.6667 18.5405 18.7896 18.3295 19.0084C18.1185 19.2272 18 19.5239 18 19.8333V23.4086C19.9783 22.389 21.5894 20.7182 22.5725 18.6667ZM11.25 24.2398C6.74103 23.1788 3.375 18.997 3.375 14H5.625C5.92337 14 6.20952 14.1229 6.4205 14.3417C6.63147 14.5605 6.75 14.8572 6.75 15.1667V16.3333C6.75 17.2616 7.10558 18.1518 7.73852 18.8082C8.37145 19.4646 9.22989 19.8333 10.125 19.8333C10.4234 19.8333 10.7095 19.9562 10.9205 20.175C11.1315 20.3938 11.25 20.6906 11.25 21V24.2398Z" fill="#22D3EE"/>
<path d="M126.322 16.1714V17.7798C126.322 19.6741 125.804 21.1932 124.767 22.3369C123.731 23.4807 122.265 24.0526 120.371 24.0526C118.477 24.0526 117.011 23.4807 115.975 22.3369C114.938 21.1932 114.42 19.6741 114.42 17.7798V16.1714C114.42 14.277 114.929 12.7669 115.948 11.641C116.984 10.4973 118.459 9.92538 120.371 9.92538C122.283 9.92538 123.749 10.4973 124.767 11.641C125.804 12.7669 126.322 14.277 126.322 16.1714ZM123.159 16.1714C123.159 15.0812 122.918 14.2323 122.435 13.6247C121.953 12.9992 121.264 12.6865 120.371 12.6865C119.477 12.6865 118.789 12.9992 118.307 13.6247C117.824 14.2323 117.583 15.0812 117.583 16.1714V17.7798C117.583 18.8699 117.824 19.7277 118.307 20.3532C118.789 20.9787 119.477 21.2915 120.371 21.2915C121.264 21.2915 121.953 20.9787 122.435 20.3532C122.918 19.7277 123.159 18.8699 123.159 17.7798V16.1714Z" fill="#22D3EE"/>
<path d="M111.03 7.62H107.787V4.42999H111.03V7.62ZM110.95 23.7845H107.867V10.1935H110.95V23.7845Z" fill="#22D3EE"/>
<path d="M104.545 23.7845H101.301V20.5945H104.545V23.7845Z" fill="#F9FAFB"/>
<path d="M95.3049 23.7845V21.9348C94.4828 22.7569 93.768 23.3198 93.1603 23.6236C92.5706 23.9096 91.954 24.0525 91.3107 24.0525C89.8452 24.0525 88.7015 23.4985 87.8794 22.3905C87.0752 21.2825 86.6731 19.7277 86.6731 17.7261V16.2786C86.6731 14.3306 87.1646 12.7848 88.1475 11.641C89.1304 10.4972 90.5511 9.92536 92.4097 9.92536C92.8744 9.92536 93.3301 9.97004 93.7769 10.0594C94.2415 10.1488 94.6973 10.2738 95.144 10.4347V3.94745H98.2268V23.7845H95.3049ZM89.8363 17.7261C89.8363 18.9235 90.0329 19.7992 90.426 20.3532C90.8371 20.9072 91.409 21.1842 92.1417 21.1842C92.5527 21.1842 92.9906 21.0681 93.4552 20.8357C93.9199 20.5855 94.4828 20.1209 95.144 19.4418V13.2226C94.2683 12.8652 93.4641 12.6865 92.7314 12.6865C91.6949 12.6865 90.9532 13.0081 90.5065 13.6515C90.0597 14.2949 89.8363 15.1706 89.8363 16.2786V17.7261Z" fill="#F9FAFB"/>
<path d="M79.8543 19.9511V3.94745H82.9371V19.9511C82.9371 20.2192 82.9996 20.4783 83.1247 20.7285C83.2677 20.9608 83.5358 21.077 83.9289 21.077H84.3578V23.9185H83.6073C82.5886 23.9185 81.8112 23.7219 81.2751 23.3288C80.7389 22.9356 80.3636 22.4352 80.1492 21.8276C79.9526 21.22 79.8543 20.5945 79.8543 19.9511Z" fill="#F9FAFB"/>
<path d="M77.2348 13.0082C76.3949 13.0082 75.5906 13.1422 74.8222 13.4103C74.0716 13.6605 73.3478 14.0715 72.6508 14.6434V23.7845H69.5681V10.1935H72.49V12.2844C73.4014 11.4266 74.2146 10.8189 74.9294 10.4615C75.6443 10.1041 76.4127 9.92538 77.2348 9.92538V13.0082Z" fill="#F9FAFB"/>
<path d="M66.1114 16.1714V17.7798C66.1114 19.6741 65.5932 21.1932 64.5566 22.3369C63.5201 23.4807 62.0547 24.0526 60.1603 24.0526C58.266 24.0526 56.8006 23.4807 55.764 22.3369C54.7275 21.1932 54.2092 19.6741 54.2092 17.7798V16.1714C54.2092 14.277 54.7186 12.7669 55.7372 11.641C56.7737 10.4973 58.2481 9.92538 60.1603 9.92538C62.0726 9.92538 63.538 10.4973 64.5566 11.641C65.5932 12.7669 66.1114 14.277 66.1114 16.1714ZM62.9482 16.1714C62.9482 15.0812 62.707 14.2323 62.2245 13.6247C61.7419 12.9992 61.0539 12.6865 60.1603 12.6865C59.2668 12.6865 58.5787 12.9992 58.0962 13.6247C57.6137 14.2323 57.3724 15.0812 57.3724 16.1714V17.7798C57.3724 18.8699 57.6137 19.7277 58.0962 20.3532C58.5787 20.9787 59.2668 21.2915 60.1603 21.2915C61.0539 21.2915 61.7419 20.9787 62.2245 20.3532C62.707 19.7277 62.9482 18.8699 62.9482 17.7798V16.1714Z" fill="#F9FAFB"/>
<path d="M35.8788 12.7669L36.8975 19.5222L40.5432 5.55585H43.4383L47.0573 19.415L48.1832 12.7669L49.5771 5.55585H52.8475L48.7461 23.7845H45.4489L41.9372 10.2202L38.3987 23.7845H35.1014L31 5.55585H34.4849L35.8788 12.7669Z" fill="#F9FAFB"/>
</svg>
